# xmcd
#
# Track frame offsets: 
#        150
#        14306
#        33117
#        45258
#        62934
#        81143
#        92588
#        108665
#        121435
#        134987
#        150792
#        167914
#        179683
#        203860
#        223305
#        237202
#
# Disc length: 3360 seconds
#
# Revision: 1
# Processed by: cddbd v1.5.2PL0 Copyright (c) Steve Scherf et al.
# Submitted via: ExactAudioCopyFreeDBPlugin 1.0
#
DISCID=de0d1e10
DTITLE=Pinchitos Caliente - 2005 - Crossing Borders
DYEAR=2005
DGENRE=Country
TTITLE0=Borracho Number One
TTITLE1=Mejor Que Nada
TTITLE2=Ay Te Dejo en San Antonio
TTITLE3=Otras y Otras
TTITLE4=Lailola
TTITLE5=Going Loco
TTITLE6=Across The Borderline
TTITLE7=Solito [-0.3]
TTITLE8=La Tumba Sera Al Final
TTITLE9=Tequila Sunrise
TTITLE10=Mendocino
TTITLE11=Ay No Digas
TTITLE12=Rio Tenampa [-0.3]
TTITLE13=Secret Love
TTITLE14=In Heaven There Is No Beer
TTITLE15=Wooly Bully
EXTD=YEAR: 2005
EXTT0=
EXTT1=
EXTT2=
EXTT3=
EXTT4=
EXTT5=
EXTT6=
EXTT7=
EXTT8=
EXTT9=
EXTT10=
EXTT11=
EXTT12=
EXTT13=
EXTT14=
EXTT15=
PLAYORDER=
